<svg xmlns="http://www.w3.org/2000/svg" viewBox="0 0 256 256"><title>cloud-lock-outline</title><path d="M6.5 18H13V20H6.5C5 20 3.69 19.5 2.61 18.43C1.54 17.38 1 16.09 1 14.58C1 13.28 1.39 12.12 2.17 11.1S4 9.43 5.25 9.15C5.67 7.62 6.5 6.38 7.75 5.43S10.42 4 12 4C13.95 4 15.6 4.68 16.96 6.04C18.08 7.16 18.73 8.5 18.93 10C18.23 10 17.56 10.19 16.95 10.46C16.84 9.31 16.38 8.31 15.54 7.46C14.56 6.5 13.38 6 12 6S9.44 6.5 8.46 7.46C7.5 8.44 7 9.62 7 11H6.5C5.53 11 4.71 11.34 4.03 12.03C3.34 12.71 3 13.53 3 14.5S3.34 16.29 4.03 17C4.71 17.66 5.53 18 6.5 18M23 17.3V20.8C23 21.4 22.4 22 21.7 22H16.2C15.6 22 15 21.4 15 20.7V17.2C15 16.6 15.6 16 16.2 16V14.5C16.2 13.1 17.6 12 19 12S21.8 13.1 21.8 14.5V16C22.4 16 23 16.6 23 17.3M20.5 14.5C20.5 13.7 19.8 13.2 19 13.2S17.5 13.7 17.5 14.5V16H20.5V14.5Z" /></svg>
<svg xmlns="http://www.w3.org/2000/svg" viewBox="0 0 256 256"><title>database-outline</title><path d="M12 3C7.58 3 4 4.79 4 7V17C4 19.21 7.59 21 12 21S20 19.21 20 17V7C20 4.79 16.42 3 12 3M18 17C18 17.5 15.87 19 12 19S6 17.5 6 17V14.77C7.61 15.55 9.72 16 12 16S16.39 15.55 18 14.77V17M18 12.45C16.7 13.4 14.42 14 12 14C9.58 14 7.3 13.4 6 12.45V9.64C7.47 10.47 9.61 11 12 11C14.39 11 16.53 10.47 18 9.64V12.45M12 9C8.13 9 6 7.5 6 7S8.13 5 12 5C15.87 5 18 6.5 18 7S15.87 9 12 9Z" /></svg>
<svg xmlns="http://www.w3.org/2000/svg" viewBox="0 0 256 256"><title>react</title><path d="M12,10.11C13.03,10.11 13.87,10.95 13.87,12C13.87,13 13.03,13.85 12,13.85C10.97,13.85 10.13,13 10.13,12C10.13,10.95 10.97,10.11 12,10.11M7.37,20C8,20.38 9.38,19.8 10.97,18.3C10.45,17.71 9.94,17.07 9.46,16.4C8.64,16.32 7.83,16.2 7.06,16.04C6.55,18.18 6.74,19.65 7.37,20M8.08,14.26L7.79,13.75C7.68,14.04 7.57,14.33 7.5,14.61C7.77,14.67 8.07,14.72 8.38,14.77C8.28,14.6 8.18,14.43 8.08,14.26M14.62,13.5L15.43,12L14.62,10.5C14.32,9.97 14,9.5 13.71,9.03C13.17,9 12.6,9 12,9C11.4,9 10.83,9 10.29,9.03C10,9.5 9.68,9.97 9.38,10.5L8.57,12L9.38,13.5C9.68,14.03 10,14.5 10.29,14.97C10.83,15 11.4,15 12,15C12.6,15 13.17,15 13.71,14.97C14,14.5 14.32,14.03 14.62,13.5M12,6.78C11.81,7 11.61,7.23 11.41,7.5C11.61,7.5 11.8,7.5 12,7.5C12.2,7.5 12.39,7.5 12.59,7.5C12.39,7.23 12.19,7 12,6.78M12,17.22C12.19,17 12.39,16.77 12.59,16.5C12.39,16.5 12.2,16.5 12,16.5C11.8,16.5 11.61,16.5 11.41,16.5C11.61,16.77 11.81,17 12,17.22M16.62,4C16,3.62 14.62,4.2 13.03,5.7C13.55,6.29 14.06,6.93 14.54,7.6C15.36,7.68 16.17,7.8 16.94,7.96C17.45,5.82 17.26,4.35 16.62,4M15.92,9.74L16.21,10.25C16.32,9.96 16.43,9.67 16.5,9.39C16.23,9.33 15.93,9.28 15.62,9.23C15.72,9.4 15.82,9.57 15.92,9.74M17.37,2.69C18.84,3.53 19,5.74 18.38,8.32C20.92,9.07 22.75,10.31 22.75,12C22.75,13.69 20.92,14.93 18.38,15.68C19,18.26 18.84,20.47 17.37,21.31C15.91,22.15 13.92,21.19 12,19.36C10.08,21.19 8.09,22.15 6.62,21.31C5.16,20.47 5,18.26 5.62,15.68C3.08,14.93 1.25,13.69 1.25,12C1.25,10.31 3.08,9.07 5.62,8.32C5,5.74 5.16,3.53 6.62,2.69C8.09,1.85 10.08,2.81 12,4.64C13.92,2.81 15.91,1.85 17.37,2.69M17.08,12C17.42,12.75 17.72,13.5 17.97,14.26C20.07,13.63 21.25,12.73 21.25,12C21.25,11.27 20.07,10.37 17.97,9.74C17.72,10.5 17.42,11.25 17.08,12M6.92,12C6.58,11.25 6.28,10.5 6.03,9.74C3.93,10.37 2.75,11.27 2.75,12C2.75,12.73 3.93,13.63 6.03,14.26C6.28,13.5 6.58,12.75 6.92,12M15.92,14.26C15.82,14.43 15.72,14.6 15.62,14.77C15.93,14.72 16.23,14.67 16.5,14.61C16.43,14.33 16.32,14.04 16.21,13.75L15.92,14.26M13.03,18.3C14.62,19.8 16,20.38 16.62,20C17.26,19.65 17.45,18.18 16.94,16.04C16.17,16.2 15.36,16.32 14.54,16.4C14.06,17.07 13.55,17.71 13.03,18.3M8.08,9.74C8.18,9.57 8.28,9.4 8.38,9.23C8.07,9.28 7.77,9.33 7.5,9.39C7.57,9.67 7.68,9.96 7.79,10.25L8.08,9.74M10.97,5.7C9.38,4.2 8,3.62 7.37,4C6.74,4.35 6.55,5.82 7.06,7.96C7.83,7.8 8.64,7.68 9.46,7.6C9.94,6.93 10.45,6.29 10.97,5.7Z" /></svg>
<svg xmlns="http://www.w3.org/2000/svg" viewBox="0 0 256 256"><title>apple-icloud</title><path d="M22,15.04C22,17.23 20.24,19 18.07,19H5.93C3.76,19 2,17.23 2,15.04C2,13.07 3.43,11.44 5.31,11.14C5.28,11 5.27,10.86 5.27,10.71C5.27,9.33 6.38,8.2 7.76,8.2C8.37,8.2 8.94,8.43 9.37,8.8C10.14,7.05 11.13,5.44 13.91,5.44C17.28,5.44 18.87,8.06 18.87,10.83C18.87,10.94 18.87,11.06 18.86,11.17C20.65,11.54 22,13.13 22,15.04Z" /></svg>
<svg xmlns="http://www.w3.org/2000/svg" viewBox="0 0 256 256"><title>server-network</title><path d="M13,19H14A1,1 0 0,1 15,20H22V22H15A1,1 0 0,1 14,23H10A1,1 0 0,1 9,22H2V20H9A1,1 0 0,1 10,19H11V17H4A1,1 0 0,1 3,16V12A1,1 0 0,1 4,11H20A1,1 0 0,1 21,12V16A1,1 0 0,1 20,17H13V19M4,3H20A1,1 0 0,1 21,4V8A1,1 0 0,1 20,9H4A1,1 0 0,1 3,8V4A1,1 0 0,1 4,3M9,7H10V5H9V7M9,15H10V13H9V15M5,5V7H7V5H5M5,13V15H7V13H5Z" /></svg>
<svg xmlns="http://www.w3.org/2000/svg" viewBox="0 0 256 256"><title>aws</title><path d="M7.64,10.38C7.64,10.63 7.66,10.83 7.71,11C7.76,11.12 7.83,11.28 7.92,11.46C7.96,11.5 7.97,11.56 7.97,11.61C7.97,11.68 7.93,11.74 7.84,11.81L7.42,12.09C7.36,12.13 7.3,12.15 7.25,12.15C7.18,12.15 7.12,12.11 7.05,12.05C6.96,11.95 6.88,11.85 6.81,11.74C6.75,11.63 6.68,11.5 6.61,11.35C6.09,11.96 5.44,12.27 4.65,12.27C4.09,12.27 3.65,12.11 3.32,11.79C3,11.47 2.83,11.04 2.83,10.5C2.83,9.95 3.03,9.5 3.43,9.14C3.84,8.8 4.38,8.62 5.06,8.62C5.29,8.62 5.5,8.64 5.77,8.68C6,8.71 6.27,8.76 6.53,8.82V8.34C6.53,7.83 6.43,7.5 6.22,7.27C6,7.06 5.65,6.97 5.14,6.97C4.9,6.97 4.66,7 4.42,7.05C4.17,7.11 3.93,7.18 3.7,7.28C3.59,7.32 3.5,7.35 3.47,7.36C3.42,7.38 3.39,7.38 3.36,7.38C3.27,7.38 3.22,7.32 3.22,7.18V6.85C3.22,6.75 3.23,6.67 3.27,6.62C3.3,6.57 3.36,6.53 3.45,6.5C3.69,6.36 3.96,6.26 4.29,6.18C4.62,6.09 4.96,6.05 5.33,6.05C6.12,6.05 6.7,6.23 7.07,6.59C7.44,6.95 7.62,7.5 7.62,8.23V10.38H7.64M4.94,11.4C5.16,11.4 5.38,11.36 5.62,11.28C5.86,11.2 6.07,11.05 6.25,10.85C6.36,10.72 6.44,10.58 6.5,10.42C6.5,10.26 6.55,10.07 6.55,9.84V9.57C6.35,9.5 6.15,9.5 5.93,9.45C5.72,9.43 5.5,9.41 5.31,9.41C4.86,9.41 4.54,9.5 4.32,9.68C4.1,9.86 4,10.11 4,10.44C4,10.76 4.07,11 4.24,11.15C4.4,11.32 4.63,11.4 4.94,11.4M10.28,12.11C10.16,12.11 10.08,12.09 10,12.05C9.97,12 9.92,11.91 9.88,11.79L8.32,6.65C8.28,6.5 8.26,6.43 8.26,6.38C8.26,6.27 8.31,6.21 8.42,6.21H9.07C9.2,6.21 9.29,6.23 9.33,6.28C9.39,6.32 9.43,6.41 9.47,6.54L10.58,10.94L11.62,6.54C11.65,6.41 11.69,6.32 11.75,6.28C11.8,6.24 11.89,6.21 12,6.21H12.55C12.67,6.21 12.76,6.23 12.81,6.28C12.86,6.32 12.91,6.41 12.94,6.54L14,11L15.14,6.54C15.18,6.41 15.23,6.32 15.27,6.28C15.33,6.24 15.41,6.21 15.53,6.21H16.15C16.26,6.21 16.32,6.27 16.32,6.38C16.32,6.41 16.31,6.45 16.3,6.5C16.3,6.5 16.28,6.58 16.26,6.65L14.65,11.79C14.61,11.93 14.57,12 14.5,12.05C14.46,12.09 14.37,12.12 14.26,12.12H13.69C13.56,12.12 13.5,12.1 13.42,12.05C13.37,12 13.32,11.92 13.3,11.79L12.27,7.5L11.24,11.78C11.21,11.91 11.17,12 11.12,12.05C11.06,12.09 10.97,12.11 10.85,12.11H10.28M18.83,12.29C18.5,12.29 18.13,12.25 17.8,12.17C17.47,12.09 17.21,12 17.04,11.91C16.93,11.85 16.86,11.78 16.83,11.72C16.8,11.66 16.79,11.6 16.79,11.54V11.2C16.79,11.06 16.84,11 16.94,11C17,11 17,11 17.06,11C17.1,11 17.16,11.05 17.23,11.08C17.45,11.18 17.7,11.26 17.96,11.31C18.23,11.36 18.5,11.39 18.75,11.39C19.17,11.39 19.5,11.32 19.72,11.17C19.95,11 20.07,10.81 20.07,10.54C20.07,10.35 20,10.2 19.89,10.07C19.77,9.95 19.54,9.83 19.22,9.73L18.25,9.43C17.77,9.27 17.41,9.05 17.19,8.75C16.97,8.46 16.86,8.13 16.86,7.78C16.86,7.5 16.92,7.26 17.04,7.05C17.16,6.83 17.32,6.65 17.5,6.5C17.72,6.35 17.94,6.24 18.21,6.16C18.47,6.08 18.75,6.04 19.05,6.04C19.19,6.04 19.34,6.05 19.5,6.07C19.64,6.09 19.78,6.12 19.92,6.14C20.06,6.18 20.18,6.21 20.3,6.25C20.42,6.29 20.5,6.33 20.58,6.37C20.67,6.42 20.74,6.47 20.78,6.53C20.82,6.59 20.84,6.66 20.84,6.75V7.07C20.84,7.21 20.79,7.28 20.69,7.28C20.64,7.28 20.55,7.25 20.43,7.2C20.06,7.03 19.63,6.94 19.16,6.94C18.78,6.94 18.5,7 18.27,7.13C18.07,7.25 17.96,7.45 17.96,7.72C17.96,7.91 18.03,8.07 18.16,8.19C18.29,8.32 18.54,8.44 18.89,8.56L19.84,8.86C20.32,9 20.66,9.22 20.87,9.5C21.07,9.77 21.17,10.08 21.17,10.43C21.17,10.71 21.11,10.97 21,11.2C20.88,11.42 20.72,11.62 20.5,11.78C20.31,11.95 20.06,12.07 19.78,12.16C19.5,12.25 19.16,12.29 18.83,12.29M20.08,15.53C17.89,17.14 14.71,18 12,18C8.15,18 4.7,16.58 2.09,14.23C1.88,14.04 2.07,13.79 2.32,13.94C5.14,15.57 8.61,16.56 12.21,16.56C14.64,16.56 17.31,16.06 19.76,15C20.13,14.85 20.44,15.26 20.08,15.53M21,14.5C20.71,14.13 19.14,14.32 18.43,14.4C18.22,14.43 18.19,14.24 18.38,14.1C19.63,13.23 21.69,13.5 21.92,13.77C22.16,14.07 21.86,16.13 20.69,17.11C20.5,17.26 20.33,17.18 20.41,17C20.68,16.32 21.27,14.84 21,14.5Z" /></svg>
<svg xmlns="http://www.w3.org/2000/svg" viewBox="0 0 256 256"><title>microsoft-visual-studio-code</title><path d="M17,16.47V7.39L11,11.93M2.22,9.19C1.92,8.87 1.91,8.37 2.2,8.04L3.4,6.93C3.6,6.75 4.09,6.67 4.45,6.93L7.87,9.54L15.8,2.29C16.12,1.97 16.67,1.84 17.3,2.17L21.3,4.08C21.66,4.29 22,4.62 22,5.23V18.73C22,19.13 21.71,19.56 21.4,19.73L17,21.83C16.68,21.96 16.08,21.84 15.87,21.63L7.85,14.33L4.45,16.93C4.07,17.19 3.6,17.12 3.4,16.93L2.2,15.83C1.88,15.5 1.92,14.96 2.25,14.63L5.25,11.93" /></svg>
<svg xmlns="http://www.w3.org/2000/svg" viewBox="0 0 256 256"><title>desktop-classic</title><path d="M6,2C4.89,2 4,2.89 4,4V12C4,13.11 4.89,14 6,14H18C19.11,14 20,13.11 20,12V4C20,2.89 19.11,2 18,2H6M6,4H18V12H6V4M4,15C2.89,15 2,15.89 2,17V20C2,21.11 2.89,22 4,22H20C21.11,22 22,21.11 22,20V17C22,15.89 21.11,15 20,15H4M8,17H20V20H8V17M9,17.75V19.25H13V17.75H9M15,17.75V19.25H19V17.75H15Z" /></svg>
<svg xmlns="http://www.w3.org/2000/svg" viewBox="0 0 256 256"><title>microsoft-azure</title><path d="M13.05,4.24L6.56,18.05L2,18L7.09,9.24L13.05,4.24M13.75,5.33L22,19.76H6.74L16.04,18.1L11.17,12.31L13.75,5.33Z" /></svg>
<svg xmlns="http://www.w3.org/2000/svg" viewBox="0 0 256 256"><title>google-cloud</title><path d="M23 14.75C23 18.2 20.2 21 16.75 21H7.25C3.8 21 1 18.2 1 14.75C1 12.61 2.08 10.72 3.71 9.6C4.58 5.82 7.96 3 12 3C16.04 3 19.42 5.82 20.29 9.6C21.93 10.72 23 12.61 23 14.75M16.63 17C17.94 17 19 15.94 19 14.63C19 13.35 18 12.3 16.72 12.25L16.75 11.75C16.75 9.13 14.62 7 12 7C10.58 7 9.3 7.62 8.43 8.61C9.93 8.9 11.23 9.72 12.14 10.86L9.5 13.5C9.08 12.77 8.29 12.25 7.38 12.25C6.06 12.25 5 13.31 5 14.63C5 15.9 6 16.93 7.25 17V17H16.63Z" /></svg>
